<svg xmlns="http://www.w3.org/2000/svg" viewBox="1760 23 116.488 18.983">
  <defs>
    <style>
      .cls-1 {
        fill: #ed1c24;
        fill-rule: evenodd;
      }
    </style>
  </defs>
  <g id="logo" transform="translate(1760 23)">
    <path id="Path_9" data-name="Path 9" class="cls-1" d="M5.794,18.983V0H0V18.983Z"/>
    <path id="Path_10" data-name="Path 10" class="cls-1" d="M109.921,18.983c5.259,0,6.7-2.424,6.7-5.547V0h-5.794V11.505c0,1.685-.411,3.041-3.451,3.041h-3.246c-3.082,0-3.452-1.356-3.452-3.041V0H94.8V13.436c0,3.123,1.438,5.547,6.7,5.547Z" transform="translate(-55.847)"/>
    <path id="Path_11" data-name="Path 11" class="cls-1" d="M245.58,18.983c5.259,0,6.7-2.424,6.7-5.547V0h-5.794V11.505c0,1.685-.411,3.041-3.452,3.041h-3.287c-3.082,0-3.452-1.356-3.452-3.041V0H230.5V13.436c0,3.123,1.438,5.547,6.7,5.547Z" transform="translate(-135.789)"/>
    <path id="Path_12" data-name="Path 12" class="cls-1" d="M27.5,14.546v4.438H46.4a4.4,4.4,0,0,0,4.52-3.534c.247-1.192-.082-3.862-2.178-4.684l-14.176-5.3c-.616-.288-.288-1.027.452-1.027H49.072V0h-14.5c-3.082,0-5.629,1.109-6.287,3.164-.575,1.849-.534,4.807,2.3,5.753l12.738,4.725c.822.329.616.945-.082.945H27.5Z" transform="translate(-16.2)"/>
    <path id="Path_13" data-name="Path 13" class="cls-1" d="M183.523,14.546v4.438H165.444c-3.164,0-3.7-1.767-3.945-2.958s.082-3.862,2.178-4.684L176.62,4.725c.288-.123.288-.288,0-.288H161.951V0H176.62c3.082,0,5.629.123,6.533,2.137a3.873,3.873,0,0,1-2.424,5.424l-12.162,6.2c-.575.247-.657.822.041.822h14.915Z" transform="translate(-95.099)"/>
  </g>
</svg>
